<mxfile host="65bd71144e">
    <diagram id="4LLV1n6aGSC9oaOVMS1J" name="Page-1">
        <mxGraphModel dx="1513" dy="936" grid="1" gridSize="10" guides="1" tooltips="1" connect="1" arrows="1" fold="1" page="1" pageScale="1" pageWidth="1654" pageHeight="1169" math="0" shadow="0">
            <root>
                <mxCell id="0"/>
                <mxCell id="1" parent="0"/>
                <mxCell id="8" value="forum completion" style="edgeStyle=none;html=1;exitX=1;exitY=0.5;exitDx=0;exitDy=0;entryX=0.013;entryY=0.524;entryDx=0;entryDy=0;entryPerimeter=0;strokeWidth=1;fontSize=14;" parent="1" source="2" target="6" edge="1">
                    <mxGeometry x="0.258" relative="1" as="geometry">
                        <mxPoint as="offset"/>
                    </mxGeometry>
                </mxCell>
                <mxCell id="36" value="Bill" style="edgeStyle=none;html=1;entryX=0.61;entryY=-0.011;entryDx=0;entryDy=0;strokeWidth=1;fontSize=14;entryPerimeter=0;exitX=0;exitY=0.6;exitDx=0;exitDy=0;exitPerimeter=0;" parent="1" source="31" target="2" edge="1">
                    <mxGeometry relative="1" as="geometry">
                        <Array as="points"/>
                        <mxPoint x="270" y="60" as="sourcePoint"/>
                    </mxGeometry>
                </mxCell>
                <mxCell id="2" value="Patient" style="shape=ellipse;html=1;dashed=0;whitespace=wrap;perimeter=ellipsePerimeter;rounded=0;strokeColor=default;fillColor=default;gradientColor=none;" parent="1" vertex="1">
                    <mxGeometry x="30" y="230" width="180" height="110" as="geometry"/>
                </mxCell>
                <mxCell id="9" style="edgeStyle=none;html=1;exitX=0;exitY=0;exitDx=0;exitDy=0;strokeWidth=1;fontSize=14;entryX=0.5;entryY=1;entryDx=0;entryDy=0;" parent="1" source="3" edge="1" target="2">
                    <mxGeometry relative="1" as="geometry">
                        <mxPoint x="150" y="330" as="targetPoint"/>
                        <Array as="points"/>
                    </mxGeometry>
                </mxCell>
                <mxCell id="10" value="required forums" style="edgeLabel;html=1;align=center;verticalAlign=middle;resizable=0;points=[];fontSize=14;" parent="9" vertex="1" connectable="0">
                    <mxGeometry x="-0.1106" y="-3" relative="1" as="geometry">
                        <mxPoint x="9" y="-13" as="offset"/>
                    </mxGeometry>
                </mxCell>
                <mxCell id="16" value="appointment request" style="edgeStyle=none;html=1;exitX=1;exitY=0.4;exitDx=0;exitDy=0;entryX=-0.009;entryY=0.522;entryDx=0;entryDy=0;entryPerimeter=0;strokeWidth=1;fontSize=14;exitPerimeter=0;" parent="1" source="3" target="4" edge="1">
                    <mxGeometry x="0.4155" y="-2" relative="1" as="geometry">
                        <Array as="points"/>
                        <mxPoint as="offset"/>
                    </mxGeometry>
                </mxCell>
                <mxCell id="3" value="Receptionist" style="shape=ellipse;html=1;dashed=0;whitespace=wrap;perimeter=ellipsePerimeter;rounded=0;strokeColor=default;fillColor=default;gradientColor=none;" parent="1" vertex="1">
                    <mxGeometry x="150" y="810" width="160" height="100" as="geometry"/>
                </mxCell>
                <mxCell id="26" style="edgeStyle=none;html=1;exitX=0;exitY=0;exitDx=70;exitDy=0;exitPerimeter=0;entryX=0;entryY=1;entryDx=0;entryDy=0;strokeWidth=1;fontSize=14;" parent="1" source="4" target="25" edge="1">
                    <mxGeometry relative="1" as="geometry">
                        <Array as="points"/>
                        <mxPoint x="810" y="610" as="sourcePoint"/>
                        <mxPoint x="1061.7799278757195" y="245.2301885893122" as="targetPoint"/>
                    </mxGeometry>
                </mxCell>
                <mxCell id="27" value="request Information" style="edgeLabel;html=1;align=center;verticalAlign=middle;resizable=0;points=[];fontSize=14;" parent="26" vertex="1" connectable="0">
                    <mxGeometry x="-0.1805" relative="1" as="geometry">
                        <mxPoint x="-23" y="30" as="offset"/>
                    </mxGeometry>
                </mxCell>
                <mxCell id="4" value="appointment Handling&lt;br&gt;" style="html=1;dashed=0;whitespace=wrap;shape=mxgraph.dfd.externalEntity" parent="1" vertex="1">
                    <mxGeometry x="630" y="560" width="150" height="130" as="geometry"/>
                </mxCell>
                <mxCell id="5" value="2" style="autosize=1;part=1;resizable=0;strokeColor=inherit;fillColor=inherit;gradientColor=inherit;" parent="4" vertex="1">
                    <mxGeometry width="30" height="30" relative="1" as="geometry">
                        <mxPoint x="10" y="10" as="offset"/>
                    </mxGeometry>
                </mxCell>
                <mxCell id="14" value="patient EMR update" style="edgeStyle=none;html=1;entryX=0.672;entryY=0.03;entryDx=0;entryDy=0;strokeWidth=1;fontSize=14;exitX=0;exitY=0;exitDx=85;exitDy=100;exitPerimeter=0;entryPerimeter=0;" parent="1" source="6" target="13" edge="1">
                    <mxGeometry relative="1" as="geometry">
                        <mxPoint x="540" y="360" as="sourcePoint"/>
                    </mxGeometry>
                </mxCell>
                <mxCell id="32" value="sends required&lt;br&gt;serviced" style="edgeStyle=none;html=1;entryX=0.5;entryY=1;entryDx=0;entryDy=0;strokeWidth=1;fontSize=14;exitX=0.359;exitY=-0.043;exitDx=0;exitDy=0;exitPerimeter=0;" parent="1" target="31" edge="1" source="6">
                    <mxGeometry x="-0.284" y="-5" relative="1" as="geometry">
                        <mxPoint x="400" y="240" as="sourcePoint"/>
                        <mxPoint x="-1" as="offset"/>
                    </mxGeometry>
                </mxCell>
                <mxCell id="6" value="AI handwritten detection" style="html=1;dashed=0;whitespace=wrap;shape=mxgraph.dfd.externalEntity" parent="1" vertex="1">
                    <mxGeometry x="470" y="260" width="160" height="100" as="geometry"/>
                </mxCell>
                <mxCell id="7" value="1" style="autosize=1;part=1;resizable=0;strokeColor=inherit;fillColor=inherit;gradientColor=inherit;" parent="6" vertex="1">
                    <mxGeometry width="30" height="30" relative="1" as="geometry">
                        <mxPoint x="10" y="10" as="offset"/>
                    </mxGeometry>
                </mxCell>
                <mxCell id="15" value="EMR Required sections" style="edgeStyle=none;html=1;exitX=0;exitY=1;exitDx=0;exitDy=0;entryX=1;entryY=0;entryDx=0;entryDy=0;strokeWidth=1;fontSize=14;" parent="1" source="13" target="3" edge="1">
                    <mxGeometry x="-0.1149" y="2" relative="1" as="geometry">
                        <mxPoint as="offset"/>
                    </mxGeometry>
                </mxCell>
                <mxCell id="13" value="&amp;nbsp;D1&amp;nbsp; &amp;nbsp;patient EMR" style="html=1;dashed=0;whitespace=wrap;shape=mxgraph.dfd.dataStoreID;align=left;spacingLeft=3;points=[[0,0],[0.5,0],[1,0],[0,0.5],[1,0.5],[0,1],[0.5,1],[1,1]];fontSize=14;" parent="1" vertex="1">
                    <mxGeometry x="470" y="510" width="130" height="50" as="geometry"/>
                </mxCell>
                <mxCell id="29" style="edgeStyle=none;html=1;exitX=0;exitY=0.5;exitDx=0;exitDy=0;entryX=1;entryY=0;entryDx=0;entryDy=0;strokeWidth=1;fontSize=14;" parent="1" source="25" target="13" edge="1">
                    <mxGeometry relative="1" as="geometry"/>
                </mxCell>
                <mxCell id="30" value="EMR examination" style="edgeLabel;html=1;align=center;verticalAlign=middle;resizable=0;points=[];fontSize=14;" parent="29" vertex="1" connectable="0">
                    <mxGeometry x="0.3359" y="1" relative="1" as="geometry">
                        <mxPoint as="offset"/>
                    </mxGeometry>
                </mxCell>
                <mxCell id="25" value="Doctor" style="ellipse;whiteSpace=wrap;html=1;fontSize=14;" parent="1" vertex="1">
                    <mxGeometry x="1050" y="230" width="190" height="130" as="geometry"/>
                </mxCell>
                <mxCell id="31" value="Accounting" style="ellipse;whiteSpace=wrap;html=1;fontSize=14;" parent="1" vertex="1">
                    <mxGeometry x="320" y="10" width="160" height="100" as="geometry"/>
                </mxCell>
                <mxCell id="46" value="" style="endArrow=none;dashed=1;html=1;strokeWidth=3;" edge="1" parent="1">
                    <mxGeometry width="50" height="50" relative="1" as="geometry">
                        <mxPoint x="280" y="760" as="sourcePoint"/>
                        <mxPoint x="960" y="160" as="targetPoint"/>
                        <Array as="points">
                            <mxPoint x="280" y="160"/>
                        </Array>
                    </mxGeometry>
                </mxCell>
                <mxCell id="49" value="" style="endArrow=none;dashed=1;html=1;strokeWidth=3;" edge="1" parent="1">
                    <mxGeometry width="50" height="50" relative="1" as="geometry">
                        <mxPoint x="280" y="760" as="sourcePoint"/>
                        <mxPoint x="960" y="160" as="targetPoint"/>
                        <Array as="points">
                            <mxPoint x="960" y="760"/>
                        </Array>
                    </mxGeometry>
                </mxCell>
            </root>
        </mxGraphModel>
    </diagram>
</mxfile>